<svg xmlns="http://www.w3.org/2000/svg" width="26" height="35" viewBox="0 0 26 35">
  <defs>
    <style>
      .cls-1 {
        fill: #fff;
        fill-rule: evenodd;
      }
    </style>
  </defs>
  <path id="Forma_1" data-name="Forma 1" class="cls-1" d="M1237,3062a12.957,12.957,0,0,0-13,12.89,12.335,12.335,0,0,0,1.14,5.25c3.25,7.05,9.48,14.5,11.31,16.61a0.73,0.73,0,0,0,1.1,0c1.83-2.11,8.06-9.55,11.31-16.61a12.335,12.335,0,0,0,1.14-5.25A12.957,12.957,0,0,0,1237,3062Zm0,19.58a6.7,6.7,0,1,1,6.75-6.69A6.728,6.728,0,0,1,1237,3081.58Z" transform="translate(-1224 -3062)"/>
</svg>
