<svg xmlns="http://www.w3.org/2000/svg" width="30" height="30" viewBox="0 0 30 30">
  <defs>
    <style>
      .cls-1 {
        fill: #fff;
        fill-rule: evenodd;
      }
    </style>
  </defs>
  <path id="Forma_1" data-name="Forma 1" class="cls-1" d="M887.266,3097a2.748,2.748,0,0,1-.753-0.07c-4.45-.88-7.8-3.73-10.2-6.11-2.465-2.44-5.409-5.77-6.23-10.31a4.287,4.287,0,0,1,1.232-3.87l0.616-.61a3.52,3.52,0,0,1,2.67-1.09,3.793,3.793,0,0,1,2.67,1.09l0.958,0.95a3.437,3.437,0,0,1,.959,2.64,3.208,3.208,0,0,1-1.575,2.38,0.8,0.8,0,0,0-.342.47,0.829,0.829,0,0,0,.137.55l0.274,0.34a33.957,33.957,0,0,0,5.682,5.63l0.068,0.07a1.405,1.405,0,0,0,.89.27,1.446,1.446,0,0,0,.753-0.54,2.916,2.916,0,0,1,4.519-.55l1.3,1.29a3.732,3.732,0,0,1,0,5.3l-1.026,1.02A3.574,3.574,0,0,1,887.266,3097ZM874.6,3076.91a1.715,1.715,0,0,0-1.232.54l-0.616.61a2.258,2.258,0,0,0-.617,2.04c0.753,4,3.423,7.06,5.683,9.23,2.19,2.17,5.271,4.82,9.173,5.57a1.728,1.728,0,0,0,1.575-.48l1.027-1.02a1.707,1.707,0,0,0,0-2.44l-1.438-1.22a0.86,0.86,0,0,0-.685-0.27,0.787,0.787,0,0,0-.616.4,2.988,2.988,0,0,1-2.122,1.5,3.2,3.2,0,0,1-2.533-.68l-0.069-.07a35.858,35.858,0,0,1-6.024-5.97l-0.274-.34a2.685,2.685,0,0,1,.753-4.01,1.05,1.05,0,0,0,.548-0.88,1.178,1.178,0,0,0-.343-1.02l-0.958-.95A1.839,1.839,0,0,0,874.6,3076.91Zm16.293,7.94a1.045,1.045,0,0,1-1.026-1.02,6.841,6.841,0,0,0-6.846-6.79,1.015,1.015,0,1,1,0-2.03,8.845,8.845,0,0,1,8.9,8.82A1.045,1.045,0,0,1,890.894,3084.85Zm8.079,0a1.045,1.045,0,0,1-1.027-1.02,14.893,14.893,0,0,0-14.924-14.79,1.02,1.02,0,1,1,0-2.04A16.9,16.9,0,0,1,900,3083.83,1,1,0,0,1,898.973,3084.85Zm-3.971,0a1.045,1.045,0,0,1-1.027-1.02,10.941,10.941,0,0,0-10.953-10.86,1.015,1.015,0,1,1,0-2.03,12.945,12.945,0,0,1,13.007,12.89A1.045,1.045,0,0,1,895,3084.85Z" transform="translate(-870 -3067)"/>
</svg>
